<svg xmlns="http://www.w3.org/2000/svg" version="1.1" xmlns:xlink="http://www.w3.org/1999/xlink" xmlns:svgjs="http://svgjs.dev/svgjs" width="100%" height="100%" viewBox="0 0 1000 600"><rect width="1000" height="600" x="0" y="0" fill="#aaffff"/><g><rect width="333.3333333333333" height="333.3333333333333" rx="13.333333333333334" ry="13.333333333333334" y="168.20487023671612" fill="#209cee" transform="matrix(0.8562661190130739,0,0,0.8562661190130739,0,13.260833770471322)" x="145.98269653320312"/><path d="M320.1347641443451 409.87153819603833L304.7553871689962 409.87153819603833L259.4051939627492 279.7742657935613Q258.2670617008163 276.50578340031825 256.9246492893058 274.34625039049706Q255.61141975630636 272.18671738067576 253.86044704564046 270.96103648320957Q252.10947433497455 269.7353555857435 249.86239268961998 269.21006377254366Q247.5861281657543 268.68477195934395 244.52192592208894 268.68477195934395L244.52192592208894 268.68477195934395L241.7495524635346 268.68477195934395L241.7495524635346 259.8715426489922L299.5024690369985 259.8715426489922L299.5024690369985 268.68477195934395L294.6872940826672 268.68477195934395Q288.32542656724775 268.68477195934395 285.2028585665602 271.10695087576505Q282.0802905658727 273.52912979218627 282.0802905658727 278.7528650456729L282.0802905658727 278.7528650456729Q282.0802905658727 280.50383775633884 282.51803374353915 282.342359102538Q282.98495979971676 284.1808804487372 283.8020803980275 286.5446936081362L283.8020803980275 286.5446936081362L306.88573730030635 354.77426356708446Q310.06667105801614 364.1127846906359 312.34293558188176 372.8968311224765Q314.59001722723633 381.65169467580614 316.34098993790224 389.2392430886917L316.34098993790224 389.2392430886917Q317.9752311345238 381.65169467580614 320.2223127798784 373.13029415056536Q322.49857730374407 364.63807650383563 325.9713398465648 354.77426356708446L325.9713398465648 354.77426356708446L349.1717282628881 287.97465465517996Q349.9888488611988 285.4357442247144 350.5141406743986 283.0719310653154Q351.0102496090873 280.7081179059165 351.0102496090873 278.9571451952506L351.0102496090873 278.9571451952506Q351.0102496090873 273.52912979218627 347.5666699447777 271.10695087576505Q344.15227315897914 268.68477195934395 337.17756519482657 268.68477195934395L337.17756519482657 268.68477195934395L332.33320736198425 268.68477195934395L332.33320736198425 259.8715426489922L383.5491591489621 259.8715426489922L383.5491591489621 268.68477195934395L379.52192191443044 268.68477195934395Q376.4577196707651 268.68477195934395 374.23982090392167 269.3267952865881Q372.05110501558926 269.93963573532113 370.2417665479012 271.71979132449815Q368.4616109587241 273.52912979218627 366.9149183976359 276.71006354989595Q365.3682258365477 279.89099730760574 363.64643600439297 284.998001047048L363.64643600439297 284.998001047048L320.1347641443451 409.87153819603833Z " fill="#ffffff" transform="matrix(0.8562661190130739,0,0,0.8562661190130739,0,13.260833770471322)"/><path d="M618.607688958489 373.8298769335261L607.6285222918223 373.8298769335261L575.2535222918223 280.95487693352607Q574.4410222918223 278.62154360019275 573.482688958489 277.07987693352607Q572.545188958489 275.53821026685944 571.295188958489 274.66321026685944Q570.045188958489 273.78821026685944 568.4410222918223 273.41321026685944Q566.8160222918223 273.03821026685944 564.6285222918223 273.03821026685944L564.6285222918223 273.03821026685944L562.6493556251556 273.03821026685944L562.6493556251556 266.7465436001928L603.8785222918223 266.7465436001928L603.8785222918223 273.03821026685944L600.4410222918223 273.03821026685944Q595.8993556251556 273.03821026685944 593.670188958489 274.76737693352607Q591.4410222918223 276.4965436001928 591.4410222918223 280.22571026685944L591.4410222918223 280.22571026685944Q591.4410222918223 281.47571026685944 591.7535222918223 282.78821026685944Q592.0868556251556 284.10071026685944 592.670188958489 285.78821026685944L592.670188958489 285.78821026685944L609.1493556251556 334.49654360019275Q611.420188958489 341.1632102668594 613.045188958489 347.43404360019275Q614.6493556251556 353.68404360019275 615.8993556251556 359.1007102668594L615.8993556251556 359.1007102668594Q617.0660222918223 353.68404360019275 618.670188958489 347.6007102668594Q620.295188958489 341.5382102668594 622.7743556251556 334.49654360019275L622.7743556251556 334.49654360019275L639.3368556251556 286.80904360019275Q639.920188958489 284.99654360019275 640.295188958489 283.30904360019275Q640.6493556251556 281.6215436001928 640.6493556251556 280.3715436001928L640.6493556251556 280.3715436001928Q640.6493556251556 276.4965436001928 638.1910222918223 274.76737693352607Q635.7535222918223 273.03821026685944 630.7743556251556 273.03821026685944L630.7743556251556 273.03821026685944L627.3160222918223 273.03821026685944L627.3160222918223 266.7465436001928L663.8785222918223 266.7465436001928L663.8785222918223 273.03821026685944L661.0035222918223 273.03821026685944Q658.8160222918223 273.03821026685944 657.232688958489 273.4965436001928Q655.670188958489 273.93404360019275 654.3785222918223 275.20487693352607Q653.107688958489 276.4965436001928 652.0035222918223 278.76737693352607Q650.8993556251556 281.03821026685944 649.670188958489 284.6840436001928L649.670188958489 284.6840436001928L618.607688958489 373.8298769335261ZM667.3160222918223 367.5382102668594L669.295188958489 367.5382102668594Q671.7743556251556 367.5382102668594 674.0243556251556 367.2048769335261Q676.2535222918223 366.87154360019275 677.9410222918223 365.8507102668594Q679.607688958489 364.8298769335261 680.607688958489 362.80904360019275Q681.5868556251556 360.7882102668594 681.5868556251556 357.49654360019275L681.5868556251556 357.49654360019275L681.5868556251556 309.95487693352607Q681.5868556251556 306.66321026685944 680.607688958489 304.64237693352607Q679.607688958489 302.64237693352607 677.9410222918223 301.53821026685944Q676.2535222918223 300.4340436001928 674.0243556251556 300.07987693352607Q671.7743556251556 299.70487693352607 669.295188958489 299.70487693352607L669.295188958489 299.70487693352607L668.857688958489 299.70487693352607L668.857688958489 293.41321026685944L695.6493556251556 293.41321026685944L695.6493556251556 356.7673769335261Q695.6493556251556 360.2882102668594 696.6493556251556 362.4132102668594Q697.6285222918223 364.5382102668594 699.2743556251556 365.6632102668594Q700.9410222918223 366.7882102668594 703.1910222918223 367.1632102668594Q705.4618556251556 367.5382102668594 707.9618556251556 367.5382102668594L707.9618556251556 367.5382102668594L709.9410222918223 367.5382102668594L709.9410222918223 373.8298769335261L667.3160222918223 373.8298769335261L667.3160222918223 367.5382102668594ZM679.4618556251556 269.10071026685944L679.4618556251556 269.10071026685944Q679.4618556251556 266.45487693352607 680.1285222918223 264.70487693352607Q680.795188958489 262.9340436001928 681.9618556251556 261.85071026685944Q683.1285222918223 260.74654360019275 684.670188958489 260.30904360019275Q686.2118556251556 259.87154360019275 688.045188958489 259.87154360019275L688.045188958489 259.87154360019275Q689.795188958489 259.87154360019275 691.3368556251556 260.30904360019275Q692.8785222918223 260.74654360019275 694.0035222918223 261.85071026685944Q695.1493556251556 262.9340436001928 695.8368556251556 264.70487693352607Q696.545188958489 266.45487693352607 696.545188958489 269.10071026685944L696.545188958489 269.10071026685944Q696.545188958489 271.72571026685944 695.8368556251556 273.4965436001928Q695.1493556251556 275.24654360019275 694.0035222918223 276.35071026685944Q692.8785222918223 277.43404360019275 691.3368556251556 277.91321026685944Q689.795188958489 278.39237693352607 688.045188958489 278.39237693352607L688.045188958489 278.39237693352607Q686.2118556251556 278.39237693352607 684.670188958489 277.91321026685944Q683.1285222918223 277.43404360019275 681.9618556251556 276.35071026685944Q680.795188958489 275.24654360019275 680.1285222918223 273.4965436001928Q679.4618556251556 271.72571026685944 679.4618556251556 269.10071026685944ZM755.9410222918223 367.5382102668594L756.3785222918223 367.5382102668594L756.3785222918223 373.8298769335261L716.0243556251556 373.8298769335261L716.0243556251556 367.5382102668594L718.0035222918223 367.5382102668594Q720.5660222918223 367.5382102668594 722.6910222918223 367.1632102668594Q724.8160222918223 366.7882102668594 726.3368556251556 365.6632102668594Q727.8785222918223 364.5382102668594 728.732688958489 362.4132102668594Q729.5660222918223 360.2882102668594 729.5660222918223 356.7673769335261L729.5660222918223 356.7673769335261L729.5660222918223 309.95487693352607Q729.5660222918223 306.66321026685944 728.6910222918223 304.64237693352607Q727.8160222918223 302.64237693352607 726.2743556251556 301.53821026685944Q724.732688958489 300.4340436001928 722.607688958489 300.07987693352607Q720.482688958489 299.70487693352607 718.0035222918223 299.70487693352607L718.0035222918223 299.70487693352607L717.5660222918223 299.70487693352607L717.5660222918223 293.41321026685944L741.0660222918223 293.41321026685944L743.045188958489 305.5590436001927L743.7743556251556 305.5590436001927Q746.045188958489 301.39237693352607 748.545188958489 298.72571026685944Q751.0243556251556 296.03821026685944 753.857688958489 294.53821026685944Q756.670188958489 293.03821026685944 759.7743556251556 292.4965436001928Q762.8993556251556 291.95487693352607 766.3993556251556 291.95487693352607L766.3993556251556 291.95487693352607Q770.0660222918223 291.95487693352607 773.357688958489 292.6840436001927Q776.670188958489 293.41321026685944 779.482688958489 295.01737693352607Q782.295188958489 296.64237693352607 784.545188958489 299.22571026685944Q786.7743556251556 301.82987693352607 788.170188958489 305.5590436001927L788.170188958489 305.5590436001927L789.3993556251556 305.5590436001927Q791.670188958489 301.39237693352607 794.3160222918223 298.72571026685944Q796.9410222918223 296.03821026685944 799.920188958489 294.53821026685944Q802.8785222918223 293.03821026685944 806.1493556251556 292.4965436001928Q809.3993556251556 291.95487693352607 812.920188958489 291.95487693352607L812.920188958489 291.95487693352607Q818.6285222918223 291.95487693352607 823.170188958489 293.66321026685944Q827.7118556251557 295.39237693352607 830.857688958489 298.9340436001927Q834.0035222918223 302.4965436001927 835.6910222918223 308.0590436001928Q837.3785222918223 313.62154360019275 837.3785222918223 321.30904360019275L837.3785222918223 321.30904360019275L837.3785222918223 356.7673769335261Q837.3785222918223 360.2882102668594 838.2535222918223 362.4132102668594Q839.1285222918223 364.5382102668594 840.670188958489 365.6632102668594Q842.2118556251556 366.7882102668594 844.3368556251557 367.1632102668594Q846.4618556251556 367.5382102668594 848.9618556251557 367.5382102668594L848.9618556251557 367.5382102668594L849.3993556251555 367.5382102668594L849.3993556251555 373.8298769335261L823.3160222918223 373.8298769335261L823.3160222918223 322.0382102668594Q823.3160222918223 317.1423769335261 822.482688958489 313.3298769335261Q821.6285222918223 309.51737693352607 819.7743556251556 306.89237693352607Q817.8993556251556 304.2465436001928 814.8993556251556 302.89237693352607Q811.8993556251556 301.53821026685944 807.5660222918223 301.53821026685944L807.5660222918223 301.53821026685944Q802.8785222918223 301.53821026685944 799.6910222918223 303.32987693352607Q796.5035222918223 305.1215436001928 794.5243556251556 308.20487693352607Q792.5660222918223 311.28821026685944 791.7118556251556 315.30904360019275Q790.8785222918223 319.3298769335261 790.8785222918223 323.87154360019275L790.8785222918223 323.87154360019275L790.8785222918223 356.7673769335261Q790.8785222918223 360.2882102668594 791.7535222918223 362.4132102668594Q792.6285222918223 364.5382102668594 794.170188958489 365.6632102668594Q795.7118556251556 366.7882102668594 797.8368556251556 367.1632102668594Q799.9618556251556 367.5382102668594 802.4410222918223 367.5382102668594L802.4410222918223 367.5382102668594L802.8785222918223 367.5382102668594L802.8785222918223 373.8298769335261L776.8160222918223 373.8298769335261L776.8160222918223 322.0382102668594Q776.8160222918223 317.1423769335261 775.9618556251556 313.3298769335261Q775.1285222918223 309.51737693352607 773.2535222918223 306.89237693352607Q771.3993556251556 304.2465436001928 768.3785222918223 302.89237693352607Q765.3785222918223 301.53821026685944 761.0660222918223 301.53821026685944L761.0660222918223 301.53821026685944Q756.1493556251556 301.53821026685944 752.8160222918223 303.51737693352607Q749.482688958489 305.4965436001928 747.4410222918223 308.8715436001928Q745.3785222918223 312.2257102668594 744.5035222918223 316.62154360019275Q743.6285222918223 321.0173769335261 743.6285222918223 325.8507102668594L743.6285222918223 325.8507102668594L743.6285222918223 357.49654360019275Q743.6285222918223 360.7882102668594 744.6285222918223 362.80904360019275Q745.607688958489 364.8298769335261 747.295188958489 365.8507102668594Q748.982688958489 366.87154360019275 751.2118556251556 367.2048769335261Q753.4410222918223 367.5382102668594 755.9410222918223 367.5382102668594L755.9410222918223 367.5382102668594ZM875.607688958489 352.0798769335261L875.607688958489 352.0798769335261Q875.607688958489 359.1007102668594 878.5868556251556 362.5798769335261Q881.545188958489 366.05904360019275 887.7743556251556 366.05904360019275L887.7743556251556 366.05904360019275Q892.3160222918223 366.05904360019275 896.0035222918223 364.6007102668594Q899.7118556251556 363.1423769335261 902.3160222918223 360.43404360019275Q904.920188958489 357.7257102668594 906.295188958489 353.8298769335261Q907.6910222918223 349.9548769335261 907.6910222918223 345.18404360019275L907.6910222918223 345.18404360019275L907.6910222918223 333.0382102668594L898.107688958489 333.4757102668594Q891.732688958489 333.7673769335261 887.4410222918223 335.0382102668594Q883.1493556251556 336.3298769335261 880.5243556251557 338.6423769335261Q877.8785222918223 340.93404360019275 876.7535222918223 344.30904360019275Q875.607688958489 347.68404360019275 875.607688958489 352.0798769335261ZM893.7743556251556 299.41321026685944L893.7743556251556 299.41321026685944Q889.4618556251556 299.41321026685944 886.7743556251557 300.6215436001928Q884.107688958489 301.82987693352607 882.607688958489 304.03821026685944Q881.107688958489 306.22571026685944 880.5868556251557 309.22571026685944Q880.0868556251556 312.2257102668594 880.0868556251556 315.74654360019275L880.0868556251556 315.74654360019275Q873.857688958489 315.74654360019275 870.5868556251556 313.62154360019275Q867.3368556251556 311.4965436001927 867.3368556251556 306.3090436001928L867.3368556251556 306.3090436001928Q867.3368556251556 302.41321026685944 869.4618556251557 299.70487693352607Q871.5868556251556 296.9965436001927 875.2743556251556 295.26737693352607Q878.982688958489 293.5590436001928 883.8993556251556 292.7465436001927Q888.795188958489 291.95487693352607 894.357688958489 291.95487693352607L894.357688958489 291.95487693352607Q901.2535222918223 291.95487693352607 906.3785222918223 293.3090436001928Q911.5035222918223 294.66321026685944 914.9410222918223 297.72571026685944Q918.3785222918223 300.8090436001928 920.107688958489 305.7465436001928Q921.8368556251556 310.70487693352607 921.8368556251556 317.87154360019275L921.8368556251556 317.87154360019275L921.8368556251556 356.7673769335261Q921.8368556251556 359.9132102668594 922.3368556251556 361.9548769335261Q922.857688958489 364.0173769335261 923.9618556251556 365.2673769335261Q925.045188958489 366.49654360019275 926.8368556251556 367.0173769335261Q928.6493556251556 367.5382102668594 931.1285222918223 367.5382102668594L931.1285222918223 367.5382102668594L931.5660222918223 367.5382102668594L931.5660222918223 373.8298769335261L911.2743556251556 373.8298769335261L908.9410222918223 360.93404360019275L907.6910222918223 360.93404360019275Q905.357688958489 364.0798769335261 903.1493556251556 366.7257102668595Q900.9618556251556 369.37154360019275 898.3160222918223 371.2673769335261Q895.6910222918223 373.1632102668594 892.357688958489 374.2257102668594Q889.0243556251556 375.2882102668594 884.3368556251556 375.2882102668594L884.3368556251556 375.2882102668594Q879.357688958489 375.2882102668594 875.0660222918223 373.87154360019275Q870.7743556251556 372.43404360019275 867.670188958489 369.4757102668594Q864.545188958489 366.49654360019275 862.795188958489 361.99654360019275Q861.045188958489 357.49654360019275 861.045188958489 351.3507102668594L861.045188958489 351.3507102668594Q861.045188958489 339.4132102668595 869.5243556251557 333.62154360019275Q878.0243556251556 327.8298769335261 895.232688958489 327.3298769335261L895.232688958489 327.3298769335261L907.6910222918223 326.87154360019275L907.6910222918223 317.87154360019275Q907.6910222918223 313.8507102668594 907.2535222918223 310.4340436001928Q906.8160222918223 307.03821026685944 905.357688958489 304.57987693352607Q903.8785222918223 302.1215436001927 901.1285222918223 300.76737693352607Q898.3993556251556 299.41321026685944 893.7743556251556 299.41321026685944ZM988.6910222918223 301.53821026685944L988.6910222918223 301.53821026685944Q982.8368556251556 301.53821026685944 978.920188958489 303.47571026685944Q975.0035222918223 305.41321026685944 972.6493556251557 309.3715436001928Q970.3160222918223 313.3298769335261 969.3368556251557 319.3298769335261Q968.3368556251556 325.3507102668594 968.3368556251556 333.4757102668594L968.3368556251556 333.4757102668594Q968.3368556251556 341.30904360019275 969.3368556251557 347.30904360019275Q970.3160222918223 353.3298769335261 972.6910222918223 357.4132102668594Q975.0660222918223 361.5173769335261 979.0035222918223 363.62154360019275Q982.920188958489 365.7048769335261 988.8368556251556 365.7048769335261L988.8368556251556 365.7048769335261Q993.8160222918223 365.7048769335261 997.295188958489 363.62154360019275Q1000.7743556251557 361.5173769335261 1003.0243556251556 357.4132102668594Q1005.2535222918223 353.3298769335261 1006.2743556251556 347.2882102668594Q1007.295188958489 341.24654360019275 1007.295188958489 333.3298769335261L1007.295188958489 333.3298769335261Q1007.295188958489 325.3507102668594 1006.2743556251556 319.37154360019275Q1005.2535222918223 313.4132102668594 1003.0243556251556 309.45487693352607Q1000.7743556251557 305.4965436001928 997.232688958489 303.51737693352607Q993.670188958489 301.53821026685944 988.6910222918223 301.53821026685944ZM1021.8785222918223 333.4757102668594L1021.8785222918223 333.4757102668594Q1021.8785222918223 344.30904360019275 1019.857688958489 352.2257102668594Q1017.857688958489 360.1423769335261 1013.9618556251556 365.2673769335261Q1010.0868556251557 370.3923769335261 1004.3785222918223 372.8507102668594Q998.670188958489 375.2882102668594 991.2535222918223 375.2882102668594L991.2535222918223 375.2882102668594Q986.9410222918223 375.2882102668594 983.420188958489 374.3507102668594Q979.920188958489 373.3923769335261 977.0868556251556 371.6423769335261Q974.2743556251557 369.87154360019275 972.107688958489 367.4548769335261Q969.9410222918223 365.0382102668594 968.3368556251556 362.1007102668594L968.3368556251556 362.1007102668594L967.7535222918223 362.1007102668594Q967.8993556251557 365.99654360019275 968.045188958489 369.37154360019275L968.045188958489 369.37154360019275Q968.1285222918223 370.74654360019275 968.1493556251556 372.24654360019275Q968.1910222918223 373.74654360019275 968.232688958489 375.0798769335261Q968.2743556251556 376.3923769335261 968.295188958489 377.4548769335261Q968.3368556251556 378.5173769335261 968.3368556251556 379.1007102668594L968.3368556251556 379.1007102668594L968.3368556251556 393.4548769335261Q968.3368556251556 396.74654360019275 969.3368556251557 398.7673769335261Q970.3160222918223 400.7882102668595 972.0035222918223 401.8507102668595Q973.6910222918223 402.9132102668595 975.920188958489 403.24654360019275Q978.1493556251556 403.55904360019275 980.6493556251556 403.55904360019275L980.6493556251556 403.55904360019275L981.0868556251556 403.55904360019275L981.0868556251556 409.87154360019275L940.732688958489 409.87154360019275L940.732688958489 403.55904360019275L941.8993556251556 403.55904360019275Q944.4618556251557 403.55904360019275 946.6910222918223 403.2048769335261Q948.920188958489 402.8298769335261 950.5868556251556 401.7048769335261Q952.232688958489 400.55904360019275 953.2118556251556 398.3923769335261Q954.2118556251556 396.24654360019275 954.2118556251556 392.7257102668595L954.2118556251556 392.7257102668595L954.2118556251556 309.95487693352607Q954.2118556251556 306.66321026685944 953.2118556251556 304.64237693352607Q952.232688958489 302.64237693352607 950.545188958489 301.53821026685944Q948.857688958489 300.4340436001928 946.6285222918223 300.07987693352607Q944.3785222918223 299.70487693352607 941.8993556251556 299.70487693352607L941.8993556251556 299.70487693352607L940.0035222918223 299.70487693352607L940.0035222918223 293.41321026685944L966.2118556251557 293.41321026685944L967.7535222918223 306.95487693352607L968.3368556251556 306.95487693352607Q970.0243556251556 303.51737693352607 972.1493556251556 300.72571026685944Q974.2743556251557 297.95487693352607 977.045188958489 296.01737693352607Q979.8368556251556 294.0590436001928 983.357688958489 293.01737693352607Q986.8785222918223 291.95487693352607 991.2535222918223 291.95487693352607L991.2535222918223 291.95487693352607Q998.670188958489 291.95487693352607 1004.3785222918223 294.39237693352607Q1010.0868556251557 296.85071026685944 1013.9618556251556 301.9340436001928Q1017.857688958489 307.03821026685944 1019.857688958489 314.87154360019275Q1021.8785222918223 322.7048769335261 1021.8785222918223 333.4757102668594Z " fill="#209cee" transform="matrix(0.8562661190130739,0,0,0.8562661190130739,0,13.260833770471322)"/></g></svg>